<?xml version="1.0" standalone="no"?>
<!DOCTYPE svg PUBLIC "-//W3C//DTD SVG 20010904//EN"
 "http://www.w3.org/TR/2001/REC-SVG-20010904/DTD/svg10.dtd">
<svg version="1.0" xmlns="http://www.w3.org/2000/svg"
 width="900.000000pt" height="975.000000pt" viewBox="0 0 900.000000 975.000000"
 preserveAspectRatio="xMidYMid meet">
<metadata>
Created by potrace 1.10, written by Peter Selinger 2001-2011
</metadata>
<g transform="translate(0.000000,975.000000) scale(0.100000,-0.100000)"
fill="#000000" stroke="none">
<path d="M2725 7881 c-52 -27 -71 -31 -140 -31 -88 0 -95 -3 -112 -41 -6 -15
-31 -40 -55 -56 -52 -35 -66 -68 -47 -109 11 -23 22 -30 54 -34 32 -4 49 -14
80 -48 21 -24 56 -52 77 -63 22 -11 42 -28 45 -37 4 -9 17 -28 30 -41 13 -13
23 -29 23 -36 0 -13 -59 -75 -71 -75 -4 0 -11 -10 -15 -22 -4 -13 -15 -34 -26
-48 -15 -21 -17 -31 -8 -54 5 -15 10 -49 10 -75 0 -26 5 -52 12 -59 8 -8 68
-12 203 -12 135 0 195 4 203 12 14 14 17 814 4 835 -5 7 -26 13 -48 13 -21 0
-66 2 -99 6 -53 5 -67 2 -120 -25z"/>
<path d="M3052 7433 l3 -388 337 -3 337 -2 34 30 c22 19 46 30 64 30 36 0 53
16 53 50 0 18 15 39 48 70 79 73 82 81 82 201 0 110 -6 129 -45 129 -11 0 -38
12 -59 26 -28 19 -45 24 -64 19 -15 -4 -58 -10 -97 -14 -72 -7 -118 -26 -168
-67 -40 -34 -91 -31 -141 6 -22 17 -47 30 -56 30 -25 0 -60 29 -60 51 0 10
-12 29 -27 42 -15 12 -43 38 -63 59 -33 35 -80 66 -127 87 -11 5 -24 15 -28
20 -22 36 -25 -15 -23 -376z"/>
<path d="M2572 6993 c-6 -10 -6 -40 -2 -67 6 -38 15 -56 36 -73 16 -13 33 -23
38 -23 5 0 17 -6 25 -14 9 -7 41 -22 71 -34 40 -14 56 -25 58 -41 4 -27 39
-51 74 -51 28 0 68 -30 68 -51 0 -32 -22 -49 -64 -49 -27 0 -48 -6 -56 -15 -7
-8 -18 -15 -25 -15 -6 0 -20 -16 -31 -35 -15 -29 -17 -39 -6 -55 15 -24 16
-57 1 -66 -6 -3 -9 -20 -6 -37 3 -25 -3 -38 -30 -66 -117 -123 -123 -132 -121
-161 3 -40 -34 -78 -81 -82 -29 -2 -37 -8 -39 -25 l-3 -23 255 0 256 0 5 23
c3 12 4 236 3 497 l-3 475 -207 3 c-190 2 -208 1 -216 -15z"/>
<path d="M3056 7001 c-4 -6 -9 -742 -6 -974 0 -16 27 -17 478 -15 l477 3 3
115 3 116 -28 20 c-15 11 -46 24 -67 27 -40 6 -86 40 -86 63 0 18 -38 37 -60
31 -36 -9 -48 10 -55 91 -4 42 -12 83 -18 91 -14 17 -33 50 -47 80 -27 60 31
86 70 31 26 -36 49 -38 87 -7 15 12 40 28 56 35 22 9 27 18 27 46 0 18 -7 39
-15 46 -8 7 -15 27 -15 46 0 36 -6 41 -65 65 -40 15 -42 18 -29 72 l6 27 -355
0 c-196 0 -358 -4 -361 -9z"/>
<path d="M4047 6193 c-9 -8 -9 -146 -1 -167 4 -11 19 -16 50 -16 34 0 48 6 69
27 44 48 25 97 -50 129 -19 7 -36 18 -40 24 -7 12 -19 13 -28 3z"/>
<path d="M7616 6079 c-21 -16 -45 -29 -52 -29 -8 0 -14 -9 -14 -20 0 -18 7
-20 68 -20 80 0 97 8 88 43 -6 26 -31 58 -44 56 -4 0 -25 -14 -46 -30z"/>
<path d="M2406 5885 c-40 -63 -57 -79 -102 -101 -54 -26 -94 -65 -94 -89 0 -7
-20 -33 -44 -57 -24 -23 -45 -52 -47 -62 -2 -11 -22 -29 -44 -42 l-40 -22 0
-268 0 -269 480 0 480 0 0 490 0 490 -270 2 -270 2 -49 -74z"/>
<path d="M3050 5953 c0 -22 0 -960 0 -971 0 -10 99 -12 478 -10 l477 3 3 493
2 492 -480 0 c-264 0 -480 -3 -480 -7z"/>
<path d="M4044 5946 c-8 -21 -1 -49 13 -53 13 -5 46 51 36 61 -12 11 -44 6
-49 -8z"/>
<path d="M7218 5916 c-39 -53 -75 -76 -117 -76 -20 0 -34 -7 -41 -19 -6 -13
-10 -166 -10 -429 0 -365 2 -411 16 -416 9 -3 93 -6 188 -6 l172 0 46 48 c50
51 72 87 63 101 -3 5 0 21 7 36 9 20 9 40 -2 93 l-13 66 28 21 c16 11 63 55
106 97 83 82 93 89 160 112 42 15 44 14 77 -10 33 -26 62 -26 62 -2 0 7 -9 28
-21 47 -25 41 -21 63 26 124 27 35 35 55 35 86 0 22 -5 43 -10 46 -6 4 -41 7
-77 6 -36 0 -74 4 -84 10 -13 6 -25 6 -39 -3 -32 -20 -45 3 -20 34 11 15 20
38 20 52 l0 26 -270 0 -269 0 -33 -44z"/>
<path d="M6956 5707 c-20 -19 -36 -41 -36 -49 0 -26 -47 -61 -81 -60 -17 0
-44 -9 -59 -20 -26 -19 -30 -19 -60 -5 -30 15 -31 15 -42 -9 -8 -17 -8 -34 -2
-52 8 -23 16 -27 52 -30 49 -4 56 -14 66 -91 l7 -53 -26 6 c-18 5 -32 1 -47
-14 -20 -18 -52 -25 -103 -22 -11 0 -51 -3 -90 -9 -44 -6 -82 -6 -102 0 -27 8
-37 6 -60 -12 -35 -28 -144 -30 -170 -5 -12 12 -22 14 -43 7 -21 -8 -35 -6
-63 10 l-35 20 -6 -22 c-11 -41 -7 -165 6 -173 6 -4 14 -2 16 4 7 23 29 11 51
-28 20 -35 27 -40 58 -40 20 0 44 7 54 16 30 27 48 11 51 -48 l3 -53 354 -3
c197 -1 359 2 364 7 4 4 8 172 7 372 -1 413 -1 415 -64 356z"/>
<path d="M4045 5677 c-3 -6 -4 -167 -3 -357 l3 -345 480 0 480 0 3 183 c2 155
0 186 -14 207 -16 25 -48 33 -58 16 -11 -17 -67 -21 -97 -6 -26 14 -32 14 -58
0 -42 -21 -95 -8 -222 54 -58 28 -113 51 -122 51 -27 0 -80 32 -123 74 -44 42
-151 106 -180 106 -10 0 -28 7 -38 15 -24 18 -45 19 -51 2z"/>
<path d="M5945 5576 c-17 -13 -39 -25 -50 -27 -16 -3 -21 -14 -25 -59 -3 -30
-9 -61 -14 -68 -4 -8 -10 -34 -13 -58 -4 -39 -1 -49 26 -80 36 -40 37 -45 14
-94 -17 -35 -18 -36 -88 -39 -38 -2 -83 -3 -100 -3 -16 1 -62 1 -102 1 -48 0
-83 6 -105 17 -23 12 -46 15 -84 11 -55 -6 -74 3 -74 35 0 27 -29 34 -62 15
-39 -22 -40 -22 -91 13 -25 17 -54 30 -65 30 -16 0 -21 7 -24 32 -2 17 -8 33
-15 35 -9 3 -13 -39 -15 -169 -2 -95 -1 -179 1 -185 2 -10 99 -13 441 -13 427
0 492 5 426 30 -15 5 -26 17 -26 28 0 18 46 71 93 107 l26 20 1 211 c0 247 -6
264 -75 210z"/>
<path d="M1754 5576 c-39 -21 -56 -39 -71 -78 -9 -22 -29 -46 -49 -59 -48 -30
-104 -105 -104 -141 0 -40 53 -88 97 -88 45 0 60 -31 44 -94 -16 -65 -14 -81
15 -115 l26 -31 138 0 c83 0 140 4 142 10 2 5 2 130 0 276 l-3 266 -42 -8
c-65 -12 -89 -10 -97 6 -4 8 -13 27 -21 43 -13 29 -38 34 -75 13z"/>
<path d="M1792 4927 c-15 -17 -6 -66 14 -82 21 -17 56 -134 49 -167 -4 -16 -2
-35 5 -43 9 -10 6 -15 -12 -20 -12 -4 -28 -14 -36 -22 -22 -21 -47 -12 -50 20
-3 21 -9 27 -26 27 -13 0 -29 -7 -36 -15 -7 -8 -24 -15 -37 -15 -14 0 -38 -8
-54 -17 -28 -17 -31 -17 -60 0 -22 12 -53 17 -104 17 -52 0 -76 4 -85 15 -25
31 -70 11 -70 -31 0 -31 -25 -48 -61 -40 -47 9 -69 -8 -69 -54 0 -36 3 -40 24
-40 24 0 36 -16 36 -49 0 -33 56 -102 114 -141 70 -48 147 -62 200 -36 19 9
44 16 55 16 14 0 28 11 39 30 13 23 24 30 49 30 49 0 51 -19 6 -59 -22 -20
-48 -48 -58 -63 -12 -19 -26 -28 -44 -28 -15 0 -31 -3 -35 -7 -10 -11 -118
-43 -144 -43 -15 0 -26 8 -32 25 -10 27 -29 32 -48 13 -29 -29 -7 -79 70 -160
l44 -48 272 0 c163 0 273 4 277 10 6 10 7 971 1 977 -2 2 -44 6 -93 10 -72 4
-91 2 -101 -10z"/>
<path d="M2040 4932 c-14 -5 -14 -978 0 -987 13 -8 50 12 50 28 1 7 11 25 24
40 32 40 59 33 67 -17 3 -21 12 -42 20 -47 23 -14 773 -11 787 3 14 14 17 944
3 966 -6 10 -106 13 -474 15 -257 1 -472 1 -477 -1z"/>
<path d="M3059 4930 c-11 -8 -13 -970 -1 -982 4 -4 219 -7 478 -6 l469 3 3
493 c2 390 0 492 -10 492 -114 4 -932 3 -939 0z"/>
<path d="M4068 4932 c-9 -2 -19 -13 -22 -25 -3 -12 -6 -229 -6 -482 0 -345 3
-464 12 -473 17 -17 929 -17 946 0 14 14 17 944 3 966 -6 10 -102 13 -463 15
-250 1 -462 1 -470 -1z"/>
<path d="M5069 4929 c-10 -6 -14 -963 -4 -979 4 -6 168 -10 430 -10 414 0 425
0 435 20 11 20 11 20 39 -1 16 -12 34 -18 40 -15 8 5 11 109 11 337 0 320 -1
329 -20 329 -30 0 -92 59 -88 84 2 11 20 32 41 45 24 16 37 32 37 46 0 13 7
28 15 35 9 7 15 29 15 51 0 29 -5 41 -22 50 -17 9 -141 13 -471 13 -247 1
-453 -2 -458 -5z"/>
<path d="M6315 4927 c-8 -4 -15 -16 -15 -26 0 -29 44 -45 128 -44 230 1 363 6
368 14 9 15 47 10 82 -11 26 -16 30 -23 23 -37 -6 -10 -13 -38 -16 -63 -5 -40
-13 -51 -71 -102 -36 -32 -73 -58 -83 -58 -23 0 -42 -23 -66 -78 -16 -38 -17
-48 -6 -75 7 -18 17 -46 22 -64 10 -33 75 -93 101 -93 25 0 48 35 48 72 0 55
36 128 63 128 24 0 41 -39 53 -121 3 -24 12 -57 19 -74 8 -16 16 -38 19 -47 3
-10 12 -18 21 -18 13 0 15 42 15 344 0 256 -3 347 -12 352 -16 10 -675 12
-693 1z"/>
<path d="M7063 4922 c-10 -11 -13 -95 -13 -412 0 -429 -1 -419 52 -436 49 -15
86 76 55 136 -24 45 -19 100 10 143 25 37 27 46 26 144 l-1 105 52 -5 c28 -3
62 -9 76 -12 18 -5 34 0 53 15 23 18 27 29 27 69 0 26 4 51 9 57 12 11 40 86
51 134 4 19 11 43 15 53 8 20 28 18 -219 20 -137 2 -183 -1 -193 -11z"/>
<path d="M6054 4896 c-10 -40 -1 -71 20 -71 10 0 24 8 30 18 9 14 7 21 -6 31
-10 7 -18 18 -18 24 0 23 -20 22 -26 -2z"/>
<path d="M6055 4541 c-8 -27 11 -54 21 -28 3 9 1 24 -4 33 -9 16 -10 15 -17
-5z"/>
<path d="M6057 4394 c-12 -13 -8 -402 4 -410 6 -3 15 -1 19 7 7 10 11 10 24 0
8 -7 27 -11 43 -9 24 3 28 8 31 36 2 19 -4 49 -12 67 -10 20 -19 76 -23 138
-5 97 -8 106 -29 115 -12 6 -24 21 -26 33 -3 23 -19 35 -31 23z"/>
<path d="M2063 3892 l-33 -3 0 -59 c0 -32 4 -61 8 -64 10 -6 82 90 82 108 0
17 -16 22 -57 18z"/>
<path d="M1490 3876 c0 -8 4 -16 9 -18 5 -1 27 -26 48 -55 39 -52 122 -123
143 -123 6 0 21 -7 34 -15 21 -14 24 -14 36 0 7 8 25 15 41 15 33 0 146 36
170 54 15 10 26 87 20 144 -2 19 -501 18 -501 -2z"/>
<path d="M2211 3860 c-12 -17 -25 -46 -28 -65 -5 -30 -2 -36 20 -46 17 -8 26
-22 31 -48 9 -58 6 -104 -9 -131 -8 -14 -14 -38 -15 -53 0 -15 -7 -42 -16 -59
-12 -23 -14 -43 -9 -77 4 -25 9 -66 10 -91 6 -94 26 -277 37 -328 9 -40 16
-54 32 -58 12 -2 181 -3 376 -2 l355 3 0 490 0 490 -381 3 -380 2 -23 -30z"/>
<path d="M3050 3883 c0 -22 0 -960 0 -971 0 -10 99 -12 478 -10 l477 3 3 493
2 492 -480 0 c-264 0 -480 -3 -480 -7z"/>
<path d="M4045 3878 c-3 -7 -4 -229 -3 -493 l3 -480 417 -3 417 -2 66 36 65
36 -2 456 -3 457 -478 3 c-377 2 -479 0 -482 -10z"/>
<path d="M5060 3880 c0 -5 0 -185 0 -400 0 -214 0 -397 0 -405 0 -8 7 -15 15
-15 8 0 15 5 15 11 0 11 40 65 124 167 41 50 121 111 147 112 8 0 20 5 26 11
6 6 40 21 76 34 36 12 73 29 84 36 40 30 114 118 108 129 -4 7 7 26 24 44 29
30 30 34 20 71 -6 22 -17 47 -25 56 -19 22 -18 42 7 73 25 32 53 48 99 56 19
3 35 10 35 15 0 14 -755 19 -755 5z"/>
<path d="M2274 2856 c-3 -8 -1 -40 5 -72 5 -33 15 -115 21 -184 7 -69 16 -135
21 -148 5 -13 9 -32 9 -44 0 -11 11 -33 25 -50 14 -16 28 -42 31 -56 3 -15 12
-39 20 -54 8 -14 14 -38 14 -53 0 -30 16 -65 37 -80 15 -12 37 -46 54 -87 6
-16 15 -28 20 -28 5 0 9 -11 9 -25 0 -13 7 -43 16 -65 l16 -40 208 0 c180 0
209 2 214 16 3 9 6 228 6 488 0 354 -3 475 -12 484 -19 19 -707 17 -714 -2z"/>
<path d="M3056 2861 c-9 -14 -8 -973 2 -983 4 -4 219 -7 478 -6 l469 3 0 495
0 495 -472 3 c-261 1 -474 -2 -477 -7z"/>
<path d="M4056 2854 c-14 -14 -16 -53 -14 -315 2 -189 7 -300 13 -302 6 -1 11
8 13 21 5 35 53 55 118 46 47 -5 55 -4 61 12 6 17 54 87 83 122 6 6 32 12 58
12 27 0 57 7 68 15 10 8 27 15 36 15 10 0 33 14 52 31 32 28 35 36 38 92 l3
62 55 30 c131 71 211 146 178 167 -7 4 -178 8 -380 8 -321 0 -369 -2 -382 -16z"/>
<path d="M7410 2035 c0 -8 5 -15 10 -15 6 0 10 7 10 15 0 8 -4 15 -10 15 -5 0
-10 -7 -10 -15z"/>
<path d="M2788 1842 c-166 -2 -178 -4 -188 -22 -6 -11 -8 -25 -5 -30 3 -6 8
-34 10 -62 6 -70 29 -178 43 -205 7 -12 12 -28 12 -36 0 -33 63 -147 116 -212
19 -23 34 -46 34 -50 0 -4 13 -29 28 -54 15 -25 36 -75 46 -111 10 -36 24 -80
32 -98 8 -18 14 -39 14 -47 0 -25 35 -75 50 -72 13 2 15 65 18 483 2 448 1
483 -15 500 -17 17 -33 19 -195 16z"/>
<path d="M3059 1834 c-10 -12 -13 -979 -3 -995 7 -12 721 -11 764 1 21 6 47 6
66 1 60 -17 66 -3 61 144 -2 72 -10 168 -17 214 -13 83 -13 85 9 102 12 10 33
35 47 54 24 35 24 40 24 248 0 117 -4 218 -8 225 -11 17 -929 23 -943 6z"/>
<path d="M7302 1828 c-7 -7 -12 -33 -12 -58 0 -26 -7 -56 -16 -69 -15 -21 -15
-26 -1 -50 28 -47 22 -186 -9 -212 -18 -15 -18 -34 3 -65 9 -14 16 -41 15 -60
-1 -24 3 -34 11 -31 8 2 13 34 15 92 2 56 8 95 16 105 19 22 30 153 16 195 -9
27 -8 40 4 64 20 38 20 65 0 85 -19 19 -26 20 -42 4z"/>
<path d="M4046 1693 c-10 -10 -7 -111 3 -118 18 -10 33 35 26 76 -7 39 -17 54
-29 42z"/>
<path d="M1856 1434 c-14 -37 16 -45 32 -9 10 22 9 25 -7 25 -10 0 -22 -7 -25
-16z"/>
<path d="M1822 1353 c4 -21 33 -25 33 -3 0 8 -8 16 -18 18 -14 3 -18 -1 -15
-15z"/>
<path d="M1884 1147 c-8 -21 1 -47 16 -47 19 0 23 31 7 48 -15 14 -17 14 -23
-1z"/>
<path d="M7257 1153 c-4 -3 -7 -28 -7 -55 0 -40 3 -48 18 -48 18 0 42 37 42
65 0 14 -26 45 -39 45 -4 0 -11 -3 -14 -7z"/>
<path d="M3056 791 c-3 -5 -7 -69 -8 -142 -2 -130 -2 -135 27 -189 37 -71 162
-192 215 -210 38 -13 42 -12 68 11 15 14 39 31 54 38 49 25 69 55 78 121 5 35
13 66 17 70 21 20 175 72 195 67 13 -4 30 -2 38 4 13 8 12 12 -7 26 -34 23
-29 65 13 129 20 30 33 61 30 69 -5 13 -55 15 -360 15 -198 0 -357 -4 -360 -9z"/>
<path d="M7612 548 c6 -18 28 -21 28 -4 0 9 -7 16 -16 16 -9 0 -14 -5 -12 -12z"/>
<path d="M7485 460 c-8 -13 20 -24 40 -16 8 3 15 10 15 16 0 13 -47 13 -55 0z"/>
<path d="M7593 447 c4 -10 7 -27 7 -38 0 -22 25 -26 33 -6 6 16 0 26 -27 47
-18 14 -19 13 -13 -3z"/>
<path d="M7560 370 c0 -5 6 -10 14 -10 8 0 18 5 21 10 3 6 -3 10 -14 10 -12 0
-21 -4 -21 -10z"/>
<path d="M7653 240 c-14 -37 0 -49 28 -24 23 21 24 40 3 48 -9 3 -17 6 -18 6
-1 0 -7 -13 -13 -30z"/>
<path d="M7677 178 c-4 -12 0 -29 7 -38 7 -8 16 -23 19 -33 9 -23 50 -19 55 5
2 9 -4 32 -12 52 -18 43 -60 51 -69 14z"/>
</g>
</svg>
